<svg width="24" height="24" viewBox="0 0 24 24" xmlns="http://www.w3.org/2000/svg" fill="none">
  <path d="M6.5 8.5C7.88071 8.5 9 7.38071 9 6C9 4.61929 7.88071 3.5 6.5 3.5C5.11929 3.5 4 4.61929 4 6C4 7.38071 5.11929 8.5 6.5 8.5Z" stroke="currentColor" stroke-width="1.8"/>
  <path d="M6.5 20.5C7.88071 20.5 9 19.3807 9 18C9 16.6193 7.88071 15.5 6.5 15.5C5.11929 15.5 4 16.6193 4 18C4 19.3807 5.11929 20.5 6.5 20.5Z" stroke="currentColor" stroke-width="1.8"/>
  <path d="M8.3 7.2L20 18.9" stroke="currentColor" stroke-width="1.8" stroke-linecap="round"/>
  <path d="M8.3 16.8L14.2 10.9" stroke="currentColor" stroke-width="1.8" stroke-linecap="round"/>
  <path d="M14.8 10.3L20 5.1" stroke="currentColor" stroke-width="1.8" stroke-linecap="round"/>
</svg>
